<mxfile host="app.diagrams.net" modified="2024-04-19T12:41:00.871Z" agent="Mozilla/5.0 (Windows NT 10.0; Win64; x64) AppleWebKit/537.36 (KHTML, like Gecko) Chrome/123.0.0.0 Safari/537.36" etag="Pz4j8JMX1U3KNYyxBTnS" version="24.2.5" type="github">
  <diagram name="第 1 页" id="PmLA4qrSaHaohE-0kaDt">
    <mxGraphModel dx="1247" dy="671" grid="1" gridSize="10" guides="1" tooltips="1" connect="1" arrows="1" fold="1" page="1" pageScale="1" pageWidth="827" pageHeight="1169" math="0" shadow="0">
      <root>
        <mxCell id="0" />
        <mxCell id="1" parent="0" />
        <mxCell id="LXQ_5_RRnz_cJoP9UmNE-7" value="" style="rounded=0;whiteSpace=wrap;html=1;fillColor=#DEF2DD;strokeColor=#82b366;dashed=1;" vertex="1" parent="1">
          <mxGeometry x="300" y="182" width="320" height="292" as="geometry" />
        </mxCell>
        <mxCell id="LXQ_5_RRnz_cJoP9UmNE-8" value="" style="rounded=0;whiteSpace=wrap;html=1;dashed=1;" vertex="1" parent="1">
          <mxGeometry x="320" y="202" width="280" height="90" as="geometry" />
        </mxCell>
        <mxCell id="LXQ_5_RRnz_cJoP9UmNE-9" value="CA&lt;div&gt;Admin&lt;/div&gt;&lt;div&gt;MSP&lt;/div&gt;" style="rounded=0;whiteSpace=wrap;html=1;fillColor=#e0f2dc;dashed=1;" vertex="1" parent="1">
          <mxGeometry x="360.5" y="222" width="50" height="50" as="geometry" />
        </mxCell>
        <mxCell id="LXQ_5_RRnz_cJoP9UmNE-10" value="CA" style="rounded=0;whiteSpace=wrap;html=1;" vertex="1" parent="1">
          <mxGeometry x="434" y="212" width="70" height="70" as="geometry" />
        </mxCell>
        <mxCell id="LXQ_5_RRnz_cJoP9UmNE-11" value="CA&lt;div&gt;MSP&lt;/div&gt;" style="rounded=0;whiteSpace=wrap;html=1;fillColor=#d5e8d4;strokeColor=#82b366;dashed=1;" vertex="1" parent="1">
          <mxGeometry x="520" y="222" width="50" height="50" as="geometry" />
        </mxCell>
        <mxCell id="LXQ_5_RRnz_cJoP9UmNE-12" value="" style="rounded=0;whiteSpace=wrap;html=1;dashed=1;" vertex="1" parent="1">
          <mxGeometry x="320" y="308" width="280" height="154" as="geometry" />
        </mxCell>
        <mxCell id="LXQ_5_RRnz_cJoP9UmNE-13" value="Org0&lt;div&gt;Admin&lt;/div&gt;&lt;div&gt;MSP&lt;/div&gt;" style="rounded=0;whiteSpace=wrap;html=1;fillColor=#DEF2DD;strokeColor=#82b366;dashed=1;" vertex="1" parent="1">
          <mxGeometry x="334" y="317" width="50" height="50" as="geometry" />
        </mxCell>
        <mxCell id="LXQ_5_RRnz_cJoP9UmNE-15" value="Local&lt;div&gt;Orderer&lt;/div&gt;&lt;div&gt;MSP&lt;/div&gt;" style="rounded=0;whiteSpace=wrap;html=1;fillColor=#d5e8d4;strokeColor=#82b366;dashed=1;" vertex="1" parent="1">
          <mxGeometry x="520" y="322" width="55" height="55" as="geometry" />
        </mxCell>
        <mxCell id="LXQ_5_RRnz_cJoP9UmNE-16" value="CA&lt;div&gt;CLI&lt;/div&gt;" style="rounded=0;whiteSpace=wrap;html=1;" vertex="1" parent="1">
          <mxGeometry x="447.5" y="327" width="42.5" height="30" as="geometry" />
        </mxCell>
        <mxCell id="LXQ_5_RRnz_cJoP9UmNE-17" value="TLS&lt;div&gt;CA&lt;/div&gt;&lt;div&gt;MSP&lt;/div&gt;" style="rounded=0;whiteSpace=wrap;html=1;fillColor=#d5e8d4;strokeColor=#82b366;dashed=1;" vertex="1" parent="1">
          <mxGeometry x="391" y="317" width="50" height="50" as="geometry" />
        </mxCell>
        <mxCell id="LXQ_5_RRnz_cJoP9UmNE-20" value="" style="rounded=0;whiteSpace=wrap;html=1;fillColor=#dae8fc;strokeColor=#6c8ebf;dashed=1;" vertex="1" parent="1">
          <mxGeometry x="120" y="560" width="390" height="330" as="geometry" />
        </mxCell>
        <mxCell id="LXQ_5_RRnz_cJoP9UmNE-21" value="" style="rounded=0;whiteSpace=wrap;html=1;dashed=1;" vertex="1" parent="1">
          <mxGeometry x="141" y="574" width="159" height="188" as="geometry" />
        </mxCell>
        <mxCell id="LXQ_5_RRnz_cJoP9UmNE-22" value="" style="rounded=0;whiteSpace=wrap;html=1;dashed=1;" vertex="1" parent="1">
          <mxGeometry x="338" y="576" width="152" height="184" as="geometry" />
        </mxCell>
        <mxCell id="LXQ_5_RRnz_cJoP9UmNE-23" value="" style="rounded=0;whiteSpace=wrap;html=1;dashed=1;" vertex="1" parent="1">
          <mxGeometry x="223" y="799" width="205" height="80" as="geometry" />
        </mxCell>
        <mxCell id="LXQ_5_RRnz_cJoP9UmNE-24" value="Org1&lt;div&gt;Admin&lt;/div&gt;&lt;div&gt;MSP&lt;/div&gt;" style="rounded=0;whiteSpace=wrap;html=1;fillColor=#dae8fc;strokeColor=#6c8ebf;" vertex="1" parent="1">
          <mxGeometry x="152" y="640" width="50" height="50" as="geometry" />
        </mxCell>
        <mxCell id="LXQ_5_RRnz_cJoP9UmNE-25" value="Local&lt;div&gt;Peer&lt;/div&gt;&lt;div&gt;MSP&lt;/div&gt;" style="rounded=0;whiteSpace=wrap;html=1;fillColor=#dae8fc;strokeColor=#6c8ebf;" vertex="1" parent="1">
          <mxGeometry x="152" y="582" width="50" height="50" as="geometry" />
        </mxCell>
        <mxCell id="LXQ_5_RRnz_cJoP9UmNE-26" value="Local&lt;div&gt;Peer&lt;/div&gt;&lt;div&gt;MSP&lt;/div&gt;" style="rounded=0;whiteSpace=wrap;html=1;fillColor=#dae8fc;strokeColor=#6c8ebf;" vertex="1" parent="1">
          <mxGeometry x="432" y="584" width="50" height="50" as="geometry" />
        </mxCell>
        <mxCell id="LXQ_5_RRnz_cJoP9UmNE-27" value="TLS&lt;div&gt;CA&lt;/div&gt;&lt;div&gt;MSP&lt;/div&gt;" style="rounded=0;whiteSpace=wrap;html=1;fillColor=#dae8fc;strokeColor=#6c8ebf;" vertex="1" parent="1">
          <mxGeometry x="152" y="699" width="50" height="50" as="geometry" />
        </mxCell>
        <mxCell id="LXQ_5_RRnz_cJoP9UmNE-28" value="Peer0" style="rounded=0;whiteSpace=wrap;html=1;" vertex="1" parent="1">
          <mxGeometry x="219" y="583.5" width="70" height="70" as="geometry" />
        </mxCell>
        <mxCell id="LXQ_5_RRnz_cJoP9UmNE-29" value="Peer&lt;div&gt;CLI&lt;/div&gt;" style="rounded=0;whiteSpace=wrap;html=1;" vertex="1" parent="1">
          <mxGeometry x="222" y="680" width="65" height="30" as="geometry" />
        </mxCell>
        <mxCell id="LXQ_5_RRnz_cJoP9UmNE-30" value="CA&lt;div&gt;CLI&lt;/div&gt;" style="rounded=0;whiteSpace=wrap;html=1;" vertex="1" parent="1">
          <mxGeometry x="223" y="718" width="65" height="30" as="geometry" />
        </mxCell>
        <mxCell id="LXQ_5_RRnz_cJoP9UmNE-31" value="Peer1" style="rounded=0;whiteSpace=wrap;html=1;" vertex="1" parent="1">
          <mxGeometry x="351.5" y="591.5" width="70" height="70" as="geometry" />
        </mxCell>
        <mxCell id="LXQ_5_RRnz_cJoP9UmNE-32" value="Local&lt;div&gt;Peer&lt;/div&gt;&lt;div&gt;MSP&lt;/div&gt;" style="rounded=0;whiteSpace=wrap;html=1;fillColor=#dae8fc;strokeColor=#6c8ebf;" vertex="1" parent="1">
          <mxGeometry x="432" y="645" width="50" height="50" as="geometry" />
        </mxCell>
        <mxCell id="LXQ_5_RRnz_cJoP9UmNE-33" value="CA&lt;div&gt;CLI&lt;/div&gt;" style="rounded=0;whiteSpace=wrap;html=1;" vertex="1" parent="1">
          <mxGeometry x="354" y="718" width="65" height="30" as="geometry" />
        </mxCell>
        <mxCell id="LXQ_5_RRnz_cJoP9UmNE-34" value="" style="endArrow=classic;html=1;rounded=0;exitX=0.5;exitY=0;exitDx=0;exitDy=0;entryX=0.5;entryY=1;entryDx=0;entryDy=0;" edge="1" parent="1" source="LXQ_5_RRnz_cJoP9UmNE-29" target="LXQ_5_RRnz_cJoP9UmNE-28">
          <mxGeometry width="50" height="50" relative="1" as="geometry">
            <mxPoint x="-120" y="700" as="sourcePoint" />
            <mxPoint x="-70" y="650" as="targetPoint" />
          </mxGeometry>
        </mxCell>
        <mxCell id="LXQ_5_RRnz_cJoP9UmNE-36" value="" style="endArrow=classic;html=1;rounded=0;exitX=1;exitY=0.5;exitDx=0;exitDy=0;entryX=0.5;entryY=1;entryDx=0;entryDy=0;" edge="1" parent="1" source="LXQ_5_RRnz_cJoP9UmNE-29" target="LXQ_5_RRnz_cJoP9UmNE-31">
          <mxGeometry width="50" height="50" relative="1" as="geometry">
            <mxPoint x="10" y="680" as="sourcePoint" />
            <mxPoint x="60" y="630" as="targetPoint" />
            <Array as="points">
              <mxPoint x="387" y="695" />
            </Array>
          </mxGeometry>
        </mxCell>
        <mxCell id="LXQ_5_RRnz_cJoP9UmNE-38" value="" style="endArrow=none;html=1;rounded=0;entryX=0;entryY=0.5;entryDx=0;entryDy=0;exitX=1;exitY=0.5;exitDx=0;exitDy=0;" edge="1" parent="1" source="LXQ_5_RRnz_cJoP9UmNE-30" target="LXQ_5_RRnz_cJoP9UmNE-33">
          <mxGeometry width="50" height="50" relative="1" as="geometry">
            <mxPoint y="720" as="sourcePoint" />
            <mxPoint x="50" y="670" as="targetPoint" />
          </mxGeometry>
        </mxCell>
        <mxCell id="LXQ_5_RRnz_cJoP9UmNE-39" value="" style="endArrow=classic;html=1;rounded=0;exitX=0.5;exitY=1;exitDx=0;exitDy=0;entryX=0.25;entryY=0;entryDx=0;entryDy=0;" edge="1" parent="1" source="LXQ_5_RRnz_cJoP9UmNE-30" target="LXQ_5_RRnz_cJoP9UmNE-44">
          <mxGeometry width="50" height="50" relative="1" as="geometry">
            <mxPoint x="-10" y="720" as="sourcePoint" />
            <mxPoint x="140" y="940" as="targetPoint" />
            <Array as="points">
              <mxPoint x="256" y="780" />
              <mxPoint x="286" y="780" />
              <mxPoint x="307" y="780" />
            </Array>
          </mxGeometry>
        </mxCell>
        <mxCell id="LXQ_5_RRnz_cJoP9UmNE-43" value="CA&lt;div&gt;Admin&lt;/div&gt;&lt;div&gt;MSP&lt;/div&gt;" style="rounded=0;whiteSpace=wrap;html=1;fillColor=#dae8fc;strokeColor=#6c8ebf;" vertex="1" parent="1">
          <mxGeometry x="230.5" y="815" width="50" height="50" as="geometry" />
        </mxCell>
        <mxCell id="LXQ_5_RRnz_cJoP9UmNE-44" value="CA" style="rounded=0;whiteSpace=wrap;html=1;" vertex="1" parent="1">
          <mxGeometry x="292" y="810" width="60" height="60" as="geometry" />
        </mxCell>
        <mxCell id="LXQ_5_RRnz_cJoP9UmNE-45" value="CA&lt;div&gt;MSP&lt;/div&gt;" style="rounded=0;whiteSpace=wrap;html=1;fillColor=#dae8fc;strokeColor=#6c8ebf;" vertex="1" parent="1">
          <mxGeometry x="369" y="814" width="50" height="50" as="geometry" />
        </mxCell>
        <mxCell id="LXQ_5_RRnz_cJoP9UmNE-46" value="" style="endArrow=classic;html=1;rounded=0;entryX=0.647;entryY=0.033;entryDx=0;entryDy=0;entryPerimeter=0;exitX=0.5;exitY=1;exitDx=0;exitDy=0;" edge="1" parent="1" source="LXQ_5_RRnz_cJoP9UmNE-33" target="LXQ_5_RRnz_cJoP9UmNE-44">
          <mxGeometry width="50" height="50" relative="1" as="geometry">
            <mxPoint x="580" y="830" as="sourcePoint" />
            <mxPoint x="630" y="780" as="targetPoint" />
            <Array as="points">
              <mxPoint x="387" y="780" />
              <mxPoint x="331" y="780" />
            </Array>
          </mxGeometry>
        </mxCell>
        <mxCell id="LXQ_5_RRnz_cJoP9UmNE-47" value="" style="rounded=0;whiteSpace=wrap;html=1;fillColor=#f8cecc;strokeColor=#b85450;dashed=1;strokeWidth=1;" vertex="1" parent="1">
          <mxGeometry x="590" y="560" width="390" height="330" as="geometry" />
        </mxCell>
        <mxCell id="LXQ_5_RRnz_cJoP9UmNE-48" value="" style="rounded=0;whiteSpace=wrap;html=1;dashed=1;" vertex="1" parent="1">
          <mxGeometry x="611" y="574" width="159" height="188" as="geometry" />
        </mxCell>
        <mxCell id="LXQ_5_RRnz_cJoP9UmNE-49" value="" style="rounded=0;whiteSpace=wrap;html=1;dashed=1;" vertex="1" parent="1">
          <mxGeometry x="808" y="576" width="152" height="184" as="geometry" />
        </mxCell>
        <mxCell id="LXQ_5_RRnz_cJoP9UmNE-50" value="" style="rounded=0;whiteSpace=wrap;html=1;dashed=1;" vertex="1" parent="1">
          <mxGeometry x="693" y="799" width="205" height="80" as="geometry" />
        </mxCell>
        <mxCell id="LXQ_5_RRnz_cJoP9UmNE-51" value="Org1&lt;div&gt;Admin&lt;/div&gt;&lt;div&gt;MSP&lt;/div&gt;" style="rounded=0;whiteSpace=wrap;html=1;fillColor=#f8cecc;strokeColor=#b85450;" vertex="1" parent="1">
          <mxGeometry x="622" y="640" width="50" height="50" as="geometry" />
        </mxCell>
        <mxCell id="LXQ_5_RRnz_cJoP9UmNE-52" value="Local&lt;div&gt;Peer&lt;/div&gt;&lt;div&gt;MSP&lt;/div&gt;" style="rounded=0;whiteSpace=wrap;html=1;fillColor=#f8cecc;strokeColor=#b85450;" vertex="1" parent="1">
          <mxGeometry x="622" y="582" width="50" height="50" as="geometry" />
        </mxCell>
        <mxCell id="LXQ_5_RRnz_cJoP9UmNE-53" value="Local&lt;div&gt;Peer&lt;/div&gt;&lt;div&gt;MSP&lt;/div&gt;" style="rounded=0;whiteSpace=wrap;html=1;fillColor=#f8cecc;strokeColor=#b85450;" vertex="1" parent="1">
          <mxGeometry x="902" y="584" width="50" height="50" as="geometry" />
        </mxCell>
        <mxCell id="LXQ_5_RRnz_cJoP9UmNE-54" value="TLS&lt;div&gt;CA&lt;/div&gt;&lt;div&gt;MSP&lt;/div&gt;" style="rounded=0;whiteSpace=wrap;html=1;fillColor=#f8cecc;strokeColor=#b85450;" vertex="1" parent="1">
          <mxGeometry x="622" y="699" width="50" height="50" as="geometry" />
        </mxCell>
        <mxCell id="LXQ_5_RRnz_cJoP9UmNE-55" value="Peer0" style="rounded=0;whiteSpace=wrap;html=1;" vertex="1" parent="1">
          <mxGeometry x="689" y="588.5" width="70" height="70" as="geometry" />
        </mxCell>
        <mxCell id="LXQ_5_RRnz_cJoP9UmNE-56" value="Peer&lt;div&gt;CLI&lt;/div&gt;" style="rounded=0;whiteSpace=wrap;html=1;" vertex="1" parent="1">
          <mxGeometry x="692" y="680" width="65" height="30" as="geometry" />
        </mxCell>
        <mxCell id="LXQ_5_RRnz_cJoP9UmNE-57" value="CA&lt;div&gt;CLI&lt;/div&gt;" style="rounded=0;whiteSpace=wrap;html=1;" vertex="1" parent="1">
          <mxGeometry x="693" y="718" width="65" height="30" as="geometry" />
        </mxCell>
        <mxCell id="LXQ_5_RRnz_cJoP9UmNE-58" value="Peer1" style="rounded=0;whiteSpace=wrap;html=1;" vertex="1" parent="1">
          <mxGeometry x="821.5" y="591.5" width="70" height="70" as="geometry" />
        </mxCell>
        <mxCell id="LXQ_5_RRnz_cJoP9UmNE-59" value="Local&lt;div&gt;Peer&lt;/div&gt;&lt;div&gt;MSP&lt;/div&gt;" style="rounded=0;whiteSpace=wrap;html=1;fillColor=#f8cecc;strokeColor=#b85450;" vertex="1" parent="1">
          <mxGeometry x="902" y="645" width="50" height="50" as="geometry" />
        </mxCell>
        <mxCell id="LXQ_5_RRnz_cJoP9UmNE-60" value="CA&lt;div&gt;CLI&lt;/div&gt;" style="rounded=0;whiteSpace=wrap;html=1;" vertex="1" parent="1">
          <mxGeometry x="824" y="718" width="65" height="30" as="geometry" />
        </mxCell>
        <mxCell id="LXQ_5_RRnz_cJoP9UmNE-61" value="" style="endArrow=classic;html=1;rounded=0;exitX=0.5;exitY=0;exitDx=0;exitDy=0;entryX=0.5;entryY=1;entryDx=0;entryDy=0;" edge="1" parent="1" source="LXQ_5_RRnz_cJoP9UmNE-56" target="LXQ_5_RRnz_cJoP9UmNE-55">
          <mxGeometry width="50" height="50" relative="1" as="geometry">
            <mxPoint x="350" y="700" as="sourcePoint" />
            <mxPoint x="400" y="650" as="targetPoint" />
          </mxGeometry>
        </mxCell>
        <mxCell id="LXQ_5_RRnz_cJoP9UmNE-62" value="" style="endArrow=classic;html=1;rounded=0;exitX=1;exitY=0.5;exitDx=0;exitDy=0;entryX=0.5;entryY=1;entryDx=0;entryDy=0;" edge="1" parent="1" source="LXQ_5_RRnz_cJoP9UmNE-56" target="LXQ_5_RRnz_cJoP9UmNE-58">
          <mxGeometry width="50" height="50" relative="1" as="geometry">
            <mxPoint x="480" y="680" as="sourcePoint" />
            <mxPoint x="530" y="630" as="targetPoint" />
            <Array as="points">
              <mxPoint x="857" y="695" />
            </Array>
          </mxGeometry>
        </mxCell>
        <mxCell id="LXQ_5_RRnz_cJoP9UmNE-63" value="" style="endArrow=none;html=1;rounded=0;entryX=0;entryY=0.5;entryDx=0;entryDy=0;exitX=1;exitY=0.5;exitDx=0;exitDy=0;" edge="1" parent="1" source="LXQ_5_RRnz_cJoP9UmNE-57" target="LXQ_5_RRnz_cJoP9UmNE-60">
          <mxGeometry width="50" height="50" relative="1" as="geometry">
            <mxPoint x="470" y="720" as="sourcePoint" />
            <mxPoint x="520" y="670" as="targetPoint" />
          </mxGeometry>
        </mxCell>
        <mxCell id="LXQ_5_RRnz_cJoP9UmNE-64" value="" style="endArrow=classic;html=1;rounded=0;exitX=0.5;exitY=1;exitDx=0;exitDy=0;entryX=0.25;entryY=0;entryDx=0;entryDy=0;" edge="1" parent="1" source="LXQ_5_RRnz_cJoP9UmNE-57" target="LXQ_5_RRnz_cJoP9UmNE-66">
          <mxGeometry width="50" height="50" relative="1" as="geometry">
            <mxPoint x="460" y="720" as="sourcePoint" />
            <mxPoint x="610" y="940" as="targetPoint" />
            <Array as="points">
              <mxPoint x="726" y="780" />
              <mxPoint x="756" y="780" />
              <mxPoint x="777" y="780" />
            </Array>
          </mxGeometry>
        </mxCell>
        <mxCell id="LXQ_5_RRnz_cJoP9UmNE-65" value="CA&lt;div&gt;Admin&lt;/div&gt;&lt;div&gt;MSP&lt;/div&gt;" style="rounded=0;whiteSpace=wrap;html=1;fillColor=#f8cecc;strokeColor=#b85450;" vertex="1" parent="1">
          <mxGeometry x="700.5" y="815" width="50" height="50" as="geometry" />
        </mxCell>
        <mxCell id="LXQ_5_RRnz_cJoP9UmNE-66" value="CA" style="rounded=0;whiteSpace=wrap;html=1;" vertex="1" parent="1">
          <mxGeometry x="762" y="810" width="60" height="60" as="geometry" />
        </mxCell>
        <mxCell id="LXQ_5_RRnz_cJoP9UmNE-67" value="CA&lt;div&gt;MSP&lt;/div&gt;" style="rounded=0;whiteSpace=wrap;html=1;fillColor=#f8cecc;strokeColor=#b85450;" vertex="1" parent="1">
          <mxGeometry x="839" y="814" width="50" height="50" as="geometry" />
        </mxCell>
        <mxCell id="LXQ_5_RRnz_cJoP9UmNE-68" value="" style="endArrow=classic;html=1;rounded=0;entryX=0.647;entryY=0.033;entryDx=0;entryDy=0;entryPerimeter=0;exitX=0.5;exitY=1;exitDx=0;exitDy=0;" edge="1" parent="1" source="LXQ_5_RRnz_cJoP9UmNE-60" target="LXQ_5_RRnz_cJoP9UmNE-66">
          <mxGeometry width="50" height="50" relative="1" as="geometry">
            <mxPoint x="1050" y="830" as="sourcePoint" />
            <mxPoint x="1100" y="780" as="targetPoint" />
            <Array as="points">
              <mxPoint x="857" y="780" />
              <mxPoint x="801" y="780" />
            </Array>
          </mxGeometry>
        </mxCell>
        <mxCell id="LXQ_5_RRnz_cJoP9UmNE-69" value="&lt;b style=&quot;font-size: 14px;&quot;&gt;&lt;font style=&quot;font-size: 14px;&quot;&gt;Domain A&lt;/font&gt;&lt;/b&gt;&lt;div style=&quot;font-size: 14px;&quot;&gt;&lt;b style=&quot;&quot;&gt;&lt;font style=&quot;font-size: 14px;&quot;&gt;Org0&lt;/font&gt;&lt;/b&gt;&lt;/div&gt;" style="text;html=1;align=center;verticalAlign=middle;resizable=0;points=[];autosize=1;strokeColor=none;fillColor=none;" vertex="1" parent="1">
          <mxGeometry x="125" y="817" width="90" height="50" as="geometry" />
        </mxCell>
        <mxCell id="LXQ_5_RRnz_cJoP9UmNE-70" value="&lt;b style=&quot;font-size: 14px;&quot;&gt;&lt;font style=&quot;font-size: 14px;&quot;&gt;Domain B&lt;/font&gt;&lt;/b&gt;&lt;div style=&quot;font-size: 14px;&quot;&gt;&lt;b style=&quot;&quot;&gt;&lt;font style=&quot;font-size: 14px;&quot;&gt;Org1&lt;/font&gt;&lt;/b&gt;&lt;/div&gt;" style="text;html=1;align=center;verticalAlign=middle;resizable=0;points=[];autosize=1;strokeColor=none;fillColor=none;" vertex="1" parent="1">
          <mxGeometry x="600" y="812" width="90" height="50" as="geometry" />
        </mxCell>
        <mxCell id="LXQ_5_RRnz_cJoP9UmNE-71" value="TLS&lt;div&gt;CA&lt;/div&gt;" style="rounded=0;whiteSpace=wrap;html=1;fillColor=#FFFFFF;strokeColor=#d6b656;strokeWidth=3;" vertex="1" parent="1">
          <mxGeometry x="651" y="280" width="99.5" height="40" as="geometry" />
        </mxCell>
        <mxCell id="LXQ_5_RRnz_cJoP9UmNE-72" value="" style="endArrow=classic;startArrow=classic;html=1;rounded=0;entryX=0.5;entryY=0;entryDx=0;entryDy=0;exitX=0.5;exitY=0;exitDx=0;exitDy=0;fillColor=#0050ef;strokeColor=#001DBC;strokeWidth=1.5;align=center;verticalAlign=middle;fontFamily=Helvetica;fontSize=11;fontColor=default;labelBackgroundColor=default;" edge="1" parent="1" source="LXQ_5_RRnz_cJoP9UmNE-28" target="LXQ_5_RRnz_cJoP9UmNE-31">
          <mxGeometry width="50" height="50" relative="1" as="geometry">
            <mxPoint x="140" y="520" as="sourcePoint" />
            <mxPoint x="190" y="470" as="targetPoint" />
            <Array as="points">
              <mxPoint x="254" y="520" />
              <mxPoint x="387" y="520" />
            </Array>
          </mxGeometry>
        </mxCell>
        <mxCell id="LXQ_5_RRnz_cJoP9UmNE-74" value="" style="endArrow=classic;startArrow=classic;html=1;rounded=0;exitX=0.5;exitY=0;exitDx=0;exitDy=0;entryX=0.5;entryY=0;entryDx=0;entryDy=0;fillColor=#0050ef;strokeColor=#001DBC;strokeWidth=1.5;" edge="1" parent="1" source="LXQ_5_RRnz_cJoP9UmNE-55" target="LXQ_5_RRnz_cJoP9UmNE-58">
          <mxGeometry width="50" height="50" relative="1" as="geometry">
            <mxPoint x="790" y="490" as="sourcePoint" />
            <mxPoint x="840" y="440" as="targetPoint" />
            <Array as="points">
              <mxPoint x="724" y="520" />
              <mxPoint x="857" y="520" />
            </Array>
          </mxGeometry>
        </mxCell>
        <mxCell id="LXQ_5_RRnz_cJoP9UmNE-76" value="" style="endArrow=classic;html=1;rounded=0;entryX=0.5;entryY=1;entryDx=0;entryDy=0;fillColor=#fff2cc;strokeColor=#d6b656;strokeWidth=2;" edge="1" parent="1" target="LXQ_5_RRnz_cJoP9UmNE-71">
          <mxGeometry width="50" height="50" relative="1" as="geometry">
            <mxPoint x="319" y="732" as="sourcePoint" />
            <mxPoint x="880.5" y="342.0000000000001" as="targetPoint" />
            <Array as="points">
              <mxPoint x="319" y="500" />
              <mxPoint x="701" y="500" />
            </Array>
          </mxGeometry>
        </mxCell>
        <mxCell id="LXQ_5_RRnz_cJoP9UmNE-78" value="" style="endArrow=classic;html=1;rounded=0;entryX=1;entryY=0.5;entryDx=0;entryDy=0;fillColor=#fff2cc;strokeColor=#d6b656;strokeWidth=2;" edge="1" parent="1" target="LXQ_5_RRnz_cJoP9UmNE-71">
          <mxGeometry width="50" height="50" relative="1" as="geometry">
            <mxPoint x="790" y="733" as="sourcePoint" />
            <mxPoint x="940" y="393" as="targetPoint" />
            <Array as="points">
              <mxPoint x="790" y="300" />
            </Array>
          </mxGeometry>
        </mxCell>
        <mxCell id="LXQ_5_RRnz_cJoP9UmNE-84" value="" style="rounded=0;whiteSpace=wrap;html=1;dashed=1;" vertex="1" parent="1">
          <mxGeometry x="340" y="387" width="240" height="66" as="geometry" />
        </mxCell>
        <mxCell id="LXQ_5_RRnz_cJoP9UmNE-14" value="Orderer0" style="rounded=0;whiteSpace=wrap;html=1;" vertex="1" parent="1">
          <mxGeometry x="354" y="392.5" width="55" height="55" as="geometry" />
        </mxCell>
        <mxCell id="LXQ_5_RRnz_cJoP9UmNE-82" value="Orderer1" style="rounded=0;whiteSpace=wrap;html=1;" vertex="1" parent="1">
          <mxGeometry x="435.5" y="392.5" width="55" height="55" as="geometry" />
        </mxCell>
        <mxCell id="LXQ_5_RRnz_cJoP9UmNE-88" value="" style="edgeStyle=orthogonalEdgeStyle;rounded=0;orthogonalLoop=1;jettySize=auto;html=1;" edge="1" parent="1" source="LXQ_5_RRnz_cJoP9UmNE-83" target="LXQ_5_RRnz_cJoP9UmNE-82">
          <mxGeometry relative="1" as="geometry" />
        </mxCell>
        <mxCell id="LXQ_5_RRnz_cJoP9UmNE-89" value="" style="edgeStyle=orthogonalEdgeStyle;rounded=0;orthogonalLoop=1;jettySize=auto;html=1;" edge="1" parent="1" source="LXQ_5_RRnz_cJoP9UmNE-83" target="LXQ_5_RRnz_cJoP9UmNE-82">
          <mxGeometry relative="1" as="geometry" />
        </mxCell>
        <mxCell id="LXQ_5_RRnz_cJoP9UmNE-83" value="Orderer2" style="rounded=0;whiteSpace=wrap;html=1;" vertex="1" parent="1">
          <mxGeometry x="517.5" y="392.5" width="55" height="55" as="geometry" />
        </mxCell>
        <mxCell id="LXQ_5_RRnz_cJoP9UmNE-86" value="" style="endArrow=classic;startArrow=classic;html=1;rounded=0;entryX=0;entryY=0.5;entryDx=0;entryDy=0;exitX=1;exitY=0.5;exitDx=0;exitDy=0;" edge="1" parent="1" source="LXQ_5_RRnz_cJoP9UmNE-14" target="LXQ_5_RRnz_cJoP9UmNE-82">
          <mxGeometry width="50" height="50" relative="1" as="geometry">
            <mxPoint x="20" y="462" as="sourcePoint" />
            <mxPoint x="70" y="412" as="targetPoint" />
          </mxGeometry>
        </mxCell>
        <mxCell id="LXQ_5_RRnz_cJoP9UmNE-87" value="" style="endArrow=classic;startArrow=classic;html=1;rounded=0;exitX=1;exitY=0.5;exitDx=0;exitDy=0;entryX=0;entryY=0.5;entryDx=0;entryDy=0;" edge="1" parent="1" source="LXQ_5_RRnz_cJoP9UmNE-82" target="LXQ_5_RRnz_cJoP9UmNE-83">
          <mxGeometry width="50" height="50" relative="1" as="geometry">
            <mxPoint x="1010" y="452" as="sourcePoint" />
            <mxPoint x="520" y="420" as="targetPoint" />
          </mxGeometry>
        </mxCell>
        <mxCell id="LXQ_5_RRnz_cJoP9UmNE-90" value="" style="endArrow=classic;html=1;rounded=0;entryX=0.5;entryY=1;entryDx=0;entryDy=0;exitX=0.5;exitY=0;exitDx=0;exitDy=0;" edge="1" parent="1" source="LXQ_5_RRnz_cJoP9UmNE-16" target="LXQ_5_RRnz_cJoP9UmNE-10">
          <mxGeometry width="50" height="50" relative="1" as="geometry">
            <mxPoint x="140" y="362" as="sourcePoint" />
            <mxPoint x="190" y="312" as="targetPoint" />
          </mxGeometry>
        </mxCell>
        <mxCell id="LXQ_5_RRnz_cJoP9UmNE-91" value="" style="endArrow=classic;html=1;rounded=0;entryX=0;entryY=0.5;entryDx=0;entryDy=0;strokeColor=#d6b656;strokeWidth=2;align=center;verticalAlign=middle;fontFamily=Helvetica;fontSize=11;fontColor=default;labelBackgroundColor=default;fillColor=#fff2cc;" edge="1" parent="1">
          <mxGeometry width="50" height="50" relative="1" as="geometry">
            <mxPoint x="469" y="300" as="sourcePoint" />
            <mxPoint x="650" y="300" as="targetPoint" />
          </mxGeometry>
        </mxCell>
        <mxCell id="LXQ_5_RRnz_cJoP9UmNE-92" value="" style="endArrow=classic;html=1;rounded=0;entryX=0.329;entryY=1.009;entryDx=0;entryDy=0;entryPerimeter=0;fillColor=#0050ef;strokeColor=#001DBC;" edge="1" parent="1" target="LXQ_5_RRnz_cJoP9UmNE-84">
          <mxGeometry width="50" height="50" relative="1" as="geometry">
            <mxPoint x="387" y="520" as="sourcePoint" />
            <mxPoint x="67" y="400" as="targetPoint" />
            <Array as="points">
              <mxPoint x="419" y="520" />
            </Array>
          </mxGeometry>
        </mxCell>
        <mxCell id="LXQ_5_RRnz_cJoP9UmNE-93" value="" style="endArrow=classic;html=1;rounded=0;entryX=0.869;entryY=1.009;entryDx=0;entryDy=0;entryPerimeter=0;strokeWidth=1.5;fillColor=#0050ef;strokeColor=#001DBC;" edge="1" parent="1">
          <mxGeometry width="50" height="50" relative="1" as="geometry">
            <mxPoint x="730" y="520" as="sourcePoint" />
            <mxPoint x="548.56" y="453.59399999999994" as="targetPoint" />
            <Array as="points">
              <mxPoint x="549" y="520" />
            </Array>
          </mxGeometry>
        </mxCell>
      </root>
    </mxGraphModel>
  </diagram>
</mxfile>
